<?xml version="1.0" encoding="UTF-8" standalone="no"?>
<!--?xml version="1.0" encoding="utf-8"?-->

<!-- Generator: Adobe Illustrator 18.1.1, SVG Export Plug-In . SVG Version: 6.00 Build 0)  -->

<svg
   xmlns:dc="http://purl.org/dc/elements/1.1/"
   xmlns:cc="http://creativecommons.org/ns#"
   xmlns:rdf="http://www.w3.org/1999/02/22-rdf-syntax-ns#"
   xmlns:svg="http://www.w3.org/2000/svg"
   xmlns="http://www.w3.org/2000/svg"
   xmlns:sodipodi="http://sodipodi.sourceforge.net/DTD/sodipodi-0.dtd"
   xmlns:inkscape="http://www.inkscape.org/namespaces/inkscape"
   version="1.1"
   id="_x31_0"
   x="0px"
   y="0px"
   viewBox="0 0 2048 2048"
   style="opacity:1"
   xml:space="preserve"
   inkscape:version="0.91 r13725"
   sodipodi:docname="icon.svg"
   width="2048"
   height="2048"
   inkscape:export-filename="/Volumes/SD/Development/Projects/xinext/iOS/FX_margin/FX_margin3/img/icon1536.png"
   inkscape:export-xdpi="67.5"
   inkscape:export-ydpi="67.5"><metadata
     id="metadata35"><rdf:RDF><cc:Work
         rdf:about=""><dc:format>image/svg+xml</dc:format><dc:type
           rdf:resource="http://purl.org/dc/dcmitype/StillImage" /><dc:title /></cc:Work></rdf:RDF></metadata><defs
     id="defs33" /><sodipodi:namedview
     pagecolor="#ffffff"
     bordercolor="#666666"
     borderopacity="1"
     objecttolerance="10"
     gridtolerance="10"
     guidetolerance="10"
     inkscape:pageopacity="0"
     inkscape:pageshadow="2"
     inkscape:window-width="1814"
     inkscape:window-height="922"
     id="namedview31"
     showgrid="false"
     inkscape:zoom="0.3"
     inkscape:cx="484.60223"
     inkscape:cy="927.42499"
     inkscape:window-x="21"
     inkscape:window-y="10"
     inkscape:window-maximized="0"
     inkscape:current-layer="g5" /><style
     type="text/css"
     id="style3">
	.st0{fill:#374149;}
</style><g
     id="g5"
     transform="matrix(5.1300204,0,0,3.9062576,-290.21208,25.999005)"><rect
       style="opacity:1;fill:#3a614f;fill-opacity:1;stroke:none;stroke-width:0;stroke-linejoin:round;stroke-miterlimit:4;stroke-dasharray:none;stroke-opacity:1"
       id="rect5599"
       width="399.21869"
       height="524.28699"
       x="56.571331"
       y="-6.6557398" /><rect
       x="101.32437"
       y="201.91794"
       class="st0"
       width="309.71262"
       height="15.806461"
       style="fill:#ffffff;fill-opacity:1"
       id="rect9" /><polygon
       class="st0"
       points="194.932,245.332 141.248,245.332 141.248,288.516 194.932,288.516 194.932,245.625 194.932,245.492 194.932,245.492 "
       style="fill:#ffffff;fill-opacity:1"
       id="polygon13"
       transform="matrix(1.0681734,0,0,1.0609788,-17.568293,-12.25868)" /><rect
       x="227.21219"
       y="248.03339"
       class="st0"
       width="57.33955"
       height="45.817307"
       style="fill:#ffffff;fill-opacity:1"
       id="rect15" /><polygon
       class="st0"
       points="370.748,245.332 317.068,245.332 317.068,288.516 370.748,288.516 370.748,245.625 370.748,245.492 370.748,245.492 "
       style="fill:#ffffff;fill-opacity:1"
       id="polygon17"
       transform="matrix(1.0681734,0,0,1.0609788,-17.568293,-12.25868)" /><polygon
       class="st0"
       points="194.932,316.851 141.248,316.851 141.248,360.035 194.932,360.035 194.932,317.145 194.932,317.016 194.932,317.016 "
       style="fill:#ffffff;fill-opacity:1"
       id="polygon19"
       transform="matrix(1.0681734,0,0,1.0609788,-17.568293,-12.25868)" /><rect
       x="227.21219"
       y="323.91351"
       class="st0"
       width="57.33955"
       height="45.817307"
       style="fill:#ffffff;fill-opacity:1"
       id="rect21" /><polygon
       class="st0"
       points="370.748,316.851 317.068,316.851 317.068,360.035 370.748,360.035 370.748,317.145 370.748,317.016 370.748,317.016 "
       style="fill:#ffffff;fill-opacity:1"
       id="polygon23"
       transform="matrix(1.0681734,0,0,1.0609788,-17.568293,-12.25868)" /><polygon
       class="st0"
       points="194.932,388.531 194.932,388.371 141.248,388.371 141.248,431.554 194.932,431.554 194.932,388.664 194.932,388.531 "
       style="fill:#ffffff;fill-opacity:1"
       id="polygon25"
       transform="matrix(1.0681734,0,0,1.0609788,-17.568293,-12.25868)" /><rect
       x="227.21219"
       y="399.79471"
       class="st0"
       width="57.33955"
       height="45.81625"
       style="fill:#ffffff;fill-opacity:1"
       id="rect27" /><polygon
       class="st0"
       points="370.748,388.531 370.748,388.371 317.068,388.371 317.068,431.554 370.748,431.554 370.748,388.664 370.748,388.531 "
       style="fill:#ffffff;fill-opacity:1"
       id="polygon29"
       transform="matrix(1.0681734,0,0,1.0609788,-17.568293,-12.25868)" /><text
       xml:space="preserve"
       style="font-style:normal;font-variant:normal;font-weight:600;font-stretch:normal;font-size:91.62823486px;line-height:125%;font-family:'Hiragino Kaku Gothic ProN';-inkscape-font-specification:'Hiragino Kaku Gothic ProN, Semi-Bold';text-align:start;letter-spacing:0px;word-spacing:0px;writing-mode:lr-tb;text-anchor:start;fill:#ffffff;fill-opacity:1;stroke:none;stroke-width:1px;stroke-linecap:butt;stroke-linejoin:miter;stroke-opacity:1;"
       x="125.7369"
       y="135.08136"
       id="text4169"
       sodipodi:linespacing="125%"
       transform="scale(0.75928859,1.3170223)"><tspan
         sodipodi:role="line"
         id="tspan4171"
         x="125.7369"
         y="135.08136"
         style="font-style:normal;font-variant:normal;font-weight:800;font-stretch:normal;font-family:'Hiragino Kaku Gothic Std';-inkscape-font-specification:'Hiragino Kaku Gothic Std Ultra-Bold';fill:#ffffff;fill-opacity:1;">FX計算機</tspan></text>
</g></svg>